<?xml version="1.0" encoding="UTF-8"?>
<!-- Created with Inkscape (http://www.inkscape.org/) -->
<svg width="213.31mm" height="270.93mm" version="1.1" viewBox="0 0 213.31 270.93" xmlns="http://www.w3.org/2000/svg">
 <g transform="translate(2.7947 -19.604)">
  <path d="m0 0"/>
  <g transform="matrix(6.5018 0 0 6.5018 -327.89 -133.07)" stroke-width="0">
   <path d="m76.246 23.482-6.5615 3.7879 6.5615 3.7884 6.5615-3.7884z" fill="#f00"/>
   <g fill="#d40000">
    <path d="m82.808 27.27-6.5615 3.7884v22.729l6.5615-3.7884z" fill="#d40000" stroke-width="0"/>
   </g>
   <path d="m69.684 27.27 2e-6 22.729 6.5615 3.7884v-22.729z" fill="#e90000"/>
  </g>
  <path d="m0 0"/>
  <path d="m0 0"/>
  <path d="m0 0"/>
  <g transform="matrix(6.5018 0 0 6.5018 -327.89 -133.07)" stroke-width="0">
   <path d="m59.842 40.529v15.153l6.5615 3.7884v-15.153z" fill="#e9bb00"/>
   <path d="m66.404 36.741-6.5615 3.7879 6.5615 3.7884 6.5615-3.7884z" fill="#fc0"/>
   <path d="m72.965 40.529-6.5615 3.7884v15.153l6.5615-3.7884z" fill="#d4aa00"/>
  </g>
  <path d="m0 0"/>
  <g transform="matrix(6.5018 0 0 6.5018 -327.89 -133.07)" stroke-width="0">
   <path d="m50 53.788v7.5763l6.5615 3.7884v-7.5763z" fill="#5dea00"/>
   <path d="m56.562 50-6.5615 3.7879 6.5615 3.7884 6.5615-3.7884z" fill="#6f0"/>
   <path d="m63.123 53.788-6.5615 3.7884v7.5763l6.5615-3.7884z" fill="#55d400"/>
   <path d="m76.246 23.482-6.5615 3.7879 6.5615 3.7884 6.5615-3.7884z" fill="#f00"/>
   <g fill="#d40000">
    <path d="m82.808 27.27-6.5615 3.7884v22.729l6.5615-3.7884z" fill="#d40000" stroke-width="0"/>
   </g>
   <path d="m69.684 27.27 2e-6 22.729 6.5615 3.7884v-22.729z" fill="#e90000"/>
   <path d="m59.842 40.529v15.153l6.5615 3.7884v-15.153z" fill="#e9bb00"/>
   <path d="m66.404 36.741-6.5615 3.7879 6.5615 3.7884 6.5615-3.7884z" fill="#fc0"/>
   <path d="m72.965 40.529-6.5615 3.7884v15.153l6.5615-3.7884z" fill="#d4aa00"/>
   <path d="m50 53.788v7.5763l6.5615 3.7884v-7.5763z" fill="#5dea00"/>
   <path d="m56.562 50-6.5615 3.7879 6.5615 3.7884 6.5615-3.7884z" fill="#6f0"/>
   <path d="m63.123 53.788-6.5615 3.7884v7.5763l6.5615-3.7884z" fill="#55d400"/>
  </g>
 </g>
</svg>
